<svg width="768" height="820" viewBox="0 0 768 820" fill="none" xmlns="http://www.w3.org/2000/svg">
<rect y="-20" width="768" height="841" fill="url(#paint0_linear_15909_1563)"/>
<path d="M226.711 441.694C226.711 441.343 226.656 441.03 226.547 440.757C226.445 440.484 226.262 440.234 225.996 440.007C225.73 439.78 225.355 439.562 224.871 439.351C224.395 439.132 223.785 438.909 223.043 438.683C222.23 438.433 221.48 438.155 220.793 437.851C220.113 437.538 219.52 437.179 219.012 436.773C218.504 436.359 218.109 435.886 217.828 435.355C217.547 434.816 217.406 434.194 217.406 433.491C217.406 432.796 217.551 432.163 217.84 431.593C218.137 431.023 218.555 430.53 219.094 430.116C219.641 429.694 220.285 429.37 221.027 429.144C221.77 428.909 222.59 428.792 223.488 428.792C224.754 428.792 225.844 429.027 226.758 429.495C227.68 429.964 228.387 430.593 228.879 431.382C229.379 432.171 229.629 433.042 229.629 433.995H226.711C226.711 433.433 226.59 432.937 226.348 432.507C226.113 432.069 225.754 431.726 225.27 431.476C224.793 431.226 224.188 431.101 223.453 431.101C222.758 431.101 222.18 431.206 221.719 431.417C221.258 431.628 220.914 431.913 220.688 432.273C220.461 432.632 220.348 433.038 220.348 433.491C220.348 433.812 220.422 434.105 220.57 434.37C220.719 434.628 220.945 434.87 221.25 435.097C221.555 435.316 221.938 435.523 222.398 435.718C222.859 435.913 223.402 436.101 224.027 436.28C224.973 436.562 225.797 436.874 226.5 437.218C227.203 437.554 227.789 437.937 228.258 438.366C228.727 438.796 229.078 439.284 229.312 439.831C229.547 440.37 229.664 440.984 229.664 441.671C229.664 442.39 229.52 443.038 229.23 443.616C228.941 444.187 228.527 444.675 227.988 445.081C227.457 445.48 226.816 445.788 226.066 446.007C225.324 446.218 224.496 446.323 223.582 446.323C222.762 446.323 221.953 446.214 221.156 445.995C220.367 445.777 219.648 445.444 219 444.999C218.352 444.546 217.836 443.984 217.453 443.312C217.07 442.632 216.879 441.839 216.879 440.933H219.82C219.82 441.487 219.914 441.96 220.102 442.351C220.297 442.741 220.566 443.062 220.91 443.312C221.254 443.554 221.652 443.734 222.105 443.851C222.566 443.968 223.059 444.027 223.582 444.027C224.27 444.027 224.844 443.929 225.305 443.734C225.773 443.538 226.125 443.265 226.359 442.913C226.594 442.562 226.711 442.155 226.711 441.694ZM239.613 443.101V433.409H242.449V446.089H239.777L239.613 443.101ZM240.012 440.464L240.961 440.441C240.961 441.292 240.867 442.077 240.68 442.796C240.492 443.507 240.203 444.128 239.812 444.659C239.422 445.183 238.922 445.593 238.312 445.89C237.703 446.179 236.973 446.323 236.121 446.323C235.504 446.323 234.938 446.234 234.422 446.054C233.906 445.874 233.461 445.597 233.086 445.222C232.719 444.847 232.434 444.359 232.23 443.757C232.027 443.155 231.926 442.437 231.926 441.601V433.409H234.75V441.624C234.75 442.085 234.805 442.472 234.914 442.784C235.023 443.089 235.172 443.335 235.359 443.523C235.547 443.71 235.766 443.843 236.016 443.921C236.266 443.999 236.531 444.038 236.812 444.038C237.617 444.038 238.25 443.882 238.711 443.569C239.18 443.249 239.512 442.819 239.707 442.28C239.91 441.741 240.012 441.136 240.012 440.464ZM252.492 443.546V437.499C252.492 437.046 252.41 436.655 252.246 436.327C252.082 435.999 251.832 435.745 251.496 435.566C251.168 435.386 250.754 435.296 250.254 435.296C249.793 435.296 249.395 435.374 249.059 435.53C248.723 435.687 248.461 435.898 248.273 436.163C248.086 436.429 247.992 436.73 247.992 437.066H245.18C245.18 436.566 245.301 436.081 245.543 435.612C245.785 435.144 246.137 434.726 246.598 434.359C247.059 433.991 247.609 433.702 248.25 433.491C248.891 433.28 249.609 433.175 250.406 433.175C251.359 433.175 252.203 433.335 252.938 433.655C253.68 433.976 254.262 434.46 254.684 435.109C255.113 435.749 255.328 436.554 255.328 437.523V443.159C255.328 443.737 255.367 444.257 255.445 444.718C255.531 445.171 255.652 445.566 255.809 445.902V446.089H252.914C252.781 445.784 252.676 445.398 252.598 444.929C252.527 444.452 252.492 443.991 252.492 443.546ZM252.902 438.378L252.926 440.124H250.898C250.375 440.124 249.914 440.175 249.516 440.277C249.117 440.37 248.785 440.511 248.52 440.698C248.254 440.886 248.055 441.112 247.922 441.378C247.789 441.644 247.723 441.944 247.723 442.28C247.723 442.616 247.801 442.925 247.957 443.206C248.113 443.48 248.34 443.694 248.637 443.851C248.941 444.007 249.309 444.085 249.738 444.085C250.316 444.085 250.82 443.968 251.25 443.734C251.688 443.491 252.031 443.198 252.281 442.855C252.531 442.503 252.664 442.171 252.68 441.859L253.594 443.112C253.5 443.433 253.34 443.777 253.113 444.144C252.887 444.511 252.59 444.862 252.223 445.198C251.863 445.527 251.43 445.796 250.922 446.007C250.422 446.218 249.844 446.323 249.188 446.323C248.359 446.323 247.621 446.159 246.973 445.831C246.324 445.495 245.816 445.046 245.449 444.484C245.082 443.913 244.898 443.269 244.898 442.55C244.898 441.878 245.023 441.284 245.273 440.769C245.531 440.245 245.906 439.808 246.398 439.456C246.898 439.105 247.508 438.839 248.227 438.659C248.945 438.472 249.766 438.378 250.688 438.378H252.902ZM267.094 435.847V450.964H264.27V433.409H266.871L267.094 435.847ZM275.355 439.632V439.878C275.355 440.8 275.246 441.655 275.027 442.444C274.816 443.226 274.5 443.909 274.078 444.495C273.664 445.073 273.152 445.523 272.543 445.843C271.934 446.163 271.23 446.323 270.434 446.323C269.645 446.323 268.953 446.179 268.359 445.89C267.773 445.593 267.277 445.175 266.871 444.636C266.465 444.097 266.137 443.464 265.887 442.737C265.645 442.003 265.473 441.198 265.371 440.323V439.374C265.473 438.444 265.645 437.601 265.887 436.843C266.137 436.085 266.465 435.433 266.871 434.886C267.277 434.339 267.773 433.917 268.359 433.62C268.945 433.323 269.629 433.175 270.41 433.175C271.207 433.175 271.914 433.331 272.531 433.644C273.148 433.948 273.668 434.386 274.09 434.956C274.512 435.519 274.828 436.198 275.039 436.995C275.25 437.784 275.355 438.663 275.355 439.632ZM272.531 439.878V439.632C272.531 439.046 272.477 438.503 272.367 438.003C272.258 437.495 272.086 437.05 271.852 436.667C271.617 436.284 271.316 435.987 270.949 435.777C270.59 435.558 270.156 435.448 269.648 435.448C269.148 435.448 268.719 435.534 268.359 435.706C268 435.87 267.699 436.101 267.457 436.398C267.215 436.694 267.027 437.042 266.895 437.441C266.762 437.831 266.668 438.257 266.613 438.718V440.991C266.707 441.554 266.867 442.069 267.094 442.538C267.32 443.007 267.641 443.382 268.055 443.663C268.477 443.937 269.016 444.073 269.672 444.073C270.18 444.073 270.613 443.964 270.973 443.745C271.332 443.527 271.625 443.226 271.852 442.843C272.086 442.452 272.258 442.003 272.367 441.495C272.477 440.987 272.531 440.448 272.531 439.878ZM280.781 428.089V446.089H277.945V428.089H280.781ZM291.023 443.546V437.499C291.023 437.046 290.941 436.655 290.777 436.327C290.613 435.999 290.363 435.745 290.027 435.566C289.699 435.386 289.285 435.296 288.785 435.296C288.324 435.296 287.926 435.374 287.59 435.53C287.254 435.687 286.992 435.898 286.805 436.163C286.617 436.429 286.523 436.73 286.523 437.066H283.711C283.711 436.566 283.832 436.081 284.074 435.612C284.316 435.144 284.668 434.726 285.129 434.359C285.59 433.991 286.141 433.702 286.781 433.491C287.422 433.28 288.141 433.175 288.938 433.175C289.891 433.175 290.734 433.335 291.469 433.655C292.211 433.976 292.793 434.46 293.215 435.109C293.645 435.749 293.859 436.554 293.859 437.523V443.159C293.859 443.737 293.898 444.257 293.977 444.718C294.062 445.171 294.184 445.566 294.34 445.902V446.089H291.445C291.312 445.784 291.207 445.398 291.129 444.929C291.059 444.452 291.023 443.991 291.023 443.546ZM291.434 438.378L291.457 440.124H289.43C288.906 440.124 288.445 440.175 288.047 440.277C287.648 440.37 287.316 440.511 287.051 440.698C286.785 440.886 286.586 441.112 286.453 441.378C286.32 441.644 286.254 441.944 286.254 442.28C286.254 442.616 286.332 442.925 286.488 443.206C286.645 443.48 286.871 443.694 287.168 443.851C287.473 444.007 287.84 444.085 288.27 444.085C288.848 444.085 289.352 443.968 289.781 443.734C290.219 443.491 290.562 443.198 290.812 442.855C291.062 442.503 291.195 442.171 291.211 441.859L292.125 443.112C292.031 443.433 291.871 443.777 291.645 444.144C291.418 444.511 291.121 444.862 290.754 445.198C290.395 445.527 289.961 445.796 289.453 446.007C288.953 446.218 288.375 446.323 287.719 446.323C286.891 446.323 286.152 446.159 285.504 445.831C284.855 445.495 284.348 445.046 283.98 444.484C283.613 443.913 283.43 443.269 283.43 442.55C283.43 441.878 283.555 441.284 283.805 440.769C284.062 440.245 284.438 439.808 284.93 439.456C285.43 439.105 286.039 438.839 286.758 438.659C287.477 438.472 288.297 438.378 289.219 438.378H291.434ZM302.625 433.409V435.472H295.477V433.409H302.625ZM297.539 430.304H300.363V442.585C300.363 442.976 300.418 443.277 300.527 443.487C300.645 443.691 300.805 443.827 301.008 443.898C301.211 443.968 301.449 444.003 301.723 444.003C301.918 444.003 302.105 443.991 302.285 443.968C302.465 443.944 302.609 443.921 302.719 443.898L302.73 446.054C302.496 446.124 302.223 446.187 301.91 446.241C301.605 446.296 301.254 446.323 300.855 446.323C300.207 446.323 299.633 446.21 299.133 445.984C298.633 445.749 298.242 445.37 297.961 444.847C297.68 444.323 297.539 443.628 297.539 442.761V430.304ZM311.953 443.546V437.499C311.953 437.046 311.871 436.655 311.707 436.327C311.543 435.999 311.293 435.745 310.957 435.566C310.629 435.386 310.215 435.296 309.715 435.296C309.254 435.296 308.855 435.374 308.52 435.53C308.184 435.687 307.922 435.898 307.734 436.163C307.547 436.429 307.453 436.73 307.453 437.066H304.641C304.641 436.566 304.762 436.081 305.004 435.612C305.246 435.144 305.598 434.726 306.059 434.359C306.52 433.991 307.07 433.702 307.711 433.491C308.352 433.28 309.07 433.175 309.867 433.175C310.82 433.175 311.664 433.335 312.398 433.655C313.141 433.976 313.723 434.46 314.145 435.109C314.574 435.749 314.789 436.554 314.789 437.523V443.159C314.789 443.737 314.828 444.257 314.906 444.718C314.992 445.171 315.113 445.566 315.27 445.902V446.089H312.375C312.242 445.784 312.137 445.398 312.059 444.929C311.988 444.452 311.953 443.991 311.953 443.546ZM312.363 438.378L312.387 440.124H310.359C309.836 440.124 309.375 440.175 308.977 440.277C308.578 440.37 308.246 440.511 307.98 440.698C307.715 440.886 307.516 441.112 307.383 441.378C307.25 441.644 307.184 441.944 307.184 442.28C307.184 442.616 307.262 442.925 307.418 443.206C307.574 443.48 307.801 443.694 308.098 443.851C308.402 444.007 308.77 444.085 309.199 444.085C309.777 444.085 310.281 443.968 310.711 443.734C311.148 443.491 311.492 443.198 311.742 442.855C311.992 442.503 312.125 442.171 312.141 441.859L313.055 443.112C312.961 443.433 312.801 443.777 312.574 444.144C312.348 444.511 312.051 444.862 311.684 445.198C311.324 445.527 310.891 445.796 310.383 446.007C309.883 446.218 309.305 446.323 308.648 446.323C307.82 446.323 307.082 446.159 306.434 445.831C305.785 445.495 305.277 445.046 304.91 444.484C304.543 443.913 304.359 443.269 304.359 442.55C304.359 441.878 304.484 441.284 304.734 440.769C304.992 440.245 305.367 439.808 305.859 439.456C306.359 439.105 306.969 438.839 307.688 438.659C308.406 438.472 309.227 438.378 310.148 438.378H312.363ZM321.562 446.089H318.738V432.191C318.738 431.245 318.914 430.452 319.266 429.812C319.625 429.163 320.137 428.675 320.801 428.347C321.465 428.011 322.25 427.843 323.156 427.843C323.438 427.843 323.715 427.862 323.988 427.902C324.262 427.933 324.527 427.984 324.785 428.054L324.715 430.234C324.559 430.194 324.387 430.167 324.199 430.152C324.02 430.136 323.824 430.128 323.613 430.128C323.184 430.128 322.812 430.21 322.5 430.374C322.195 430.53 321.961 430.761 321.797 431.066C321.641 431.37 321.562 431.745 321.562 432.191V446.089ZM324.176 433.409V435.472H316.793V433.409H324.176ZM325.688 439.89V439.62C325.688 438.706 325.82 437.859 326.086 437.077C326.352 436.288 326.734 435.605 327.234 435.027C327.742 434.441 328.359 433.987 329.086 433.667C329.82 433.339 330.648 433.175 331.57 433.175C332.5 433.175 333.328 433.339 334.055 433.667C334.789 433.987 335.41 434.441 335.918 435.027C336.426 435.605 336.812 436.288 337.078 437.077C337.344 437.859 337.477 438.706 337.477 439.62V439.89C337.477 440.804 337.344 441.652 337.078 442.433C336.812 443.214 336.426 443.898 335.918 444.484C335.41 445.062 334.793 445.515 334.066 445.843C333.34 446.163 332.516 446.323 331.594 446.323C330.664 446.323 329.832 446.163 329.098 445.843C328.371 445.515 327.754 445.062 327.246 444.484C326.738 443.898 326.352 443.214 326.086 442.433C325.82 441.652 325.688 440.804 325.688 439.89ZM328.512 439.62V439.89C328.512 440.46 328.57 440.999 328.688 441.507C328.805 442.015 328.988 442.46 329.238 442.843C329.488 443.226 329.809 443.527 330.199 443.745C330.59 443.964 331.055 444.073 331.594 444.073C332.117 444.073 332.57 443.964 332.953 443.745C333.344 443.527 333.664 443.226 333.914 442.843C334.164 442.46 334.348 442.015 334.465 441.507C334.59 440.999 334.652 440.46 334.652 439.89V439.62C334.652 439.058 334.59 438.527 334.465 438.027C334.348 437.519 334.16 437.069 333.902 436.679C333.652 436.288 333.332 435.984 332.941 435.765C332.559 435.538 332.102 435.425 331.57 435.425C331.039 435.425 330.578 435.538 330.188 435.765C329.805 435.984 329.488 436.288 329.238 436.679C328.988 437.069 328.805 437.519 328.688 438.027C328.57 438.527 328.512 439.058 328.512 439.62ZM342.68 435.823V446.089H339.855V433.409H342.551L342.68 435.823ZM346.559 433.327L346.535 435.952C346.363 435.921 346.176 435.898 345.973 435.882C345.777 435.866 345.582 435.859 345.387 435.859C344.902 435.859 344.477 435.929 344.109 436.069C343.742 436.202 343.434 436.398 343.184 436.655C342.941 436.905 342.754 437.21 342.621 437.569C342.488 437.929 342.41 438.331 342.387 438.777L341.742 438.823C341.742 438.027 341.82 437.288 341.977 436.609C342.133 435.929 342.367 435.331 342.68 434.816C343 434.3 343.398 433.898 343.875 433.609C344.359 433.319 344.918 433.175 345.551 433.175C345.723 433.175 345.906 433.191 346.102 433.222C346.305 433.253 346.457 433.288 346.559 433.327ZM351.152 435.987V446.089H348.328V433.409H350.988L351.152 435.987ZM350.695 439.28L349.734 439.269C349.734 438.394 349.844 437.585 350.062 436.843C350.281 436.101 350.602 435.456 351.023 434.909C351.445 434.355 351.969 433.929 352.594 433.632C353.227 433.327 353.957 433.175 354.785 433.175C355.363 433.175 355.891 433.261 356.367 433.433C356.852 433.597 357.27 433.859 357.621 434.218C357.98 434.577 358.254 435.038 358.441 435.601C358.637 436.163 358.734 436.843 358.734 437.64V446.089H355.91V437.886C355.91 437.269 355.816 436.784 355.629 436.433C355.449 436.081 355.188 435.831 354.844 435.683C354.508 435.527 354.105 435.448 353.637 435.448C353.105 435.448 352.652 435.55 352.277 435.753C351.91 435.956 351.609 436.234 351.375 436.585C351.141 436.937 350.969 437.343 350.859 437.804C350.75 438.265 350.695 438.757 350.695 439.28ZM358.559 438.53L357.234 438.823C357.234 438.058 357.34 437.335 357.551 436.655C357.77 435.968 358.086 435.366 358.5 434.851C358.922 434.327 359.441 433.917 360.059 433.62C360.676 433.323 361.383 433.175 362.18 433.175C362.828 433.175 363.406 433.265 363.914 433.444C364.43 433.616 364.867 433.89 365.227 434.265C365.586 434.64 365.859 435.128 366.047 435.73C366.234 436.323 366.328 437.042 366.328 437.886V446.089H363.492V437.874C363.492 437.234 363.398 436.737 363.211 436.386C363.031 436.034 362.773 435.792 362.438 435.659C362.102 435.519 361.699 435.448 361.23 435.448C360.793 435.448 360.406 435.53 360.07 435.694C359.742 435.851 359.465 436.073 359.238 436.362C359.012 436.644 358.84 436.968 358.723 437.335C358.613 437.702 358.559 438.101 358.559 438.53ZM376.383 443.546V437.499C376.383 437.046 376.301 436.655 376.137 436.327C375.973 435.999 375.723 435.745 375.387 435.566C375.059 435.386 374.645 435.296 374.145 435.296C373.684 435.296 373.285 435.374 372.949 435.53C372.613 435.687 372.352 435.898 372.164 436.163C371.977 436.429 371.883 436.73 371.883 437.066H369.07C369.07 436.566 369.191 436.081 369.434 435.612C369.676 435.144 370.027 434.726 370.488 434.359C370.949 433.991 371.5 433.702 372.141 433.491C372.781 433.28 373.5 433.175 374.297 433.175C375.25 433.175 376.094 433.335 376.828 433.655C377.57 433.976 378.152 434.46 378.574 435.109C379.004 435.749 379.219 436.554 379.219 437.523V443.159C379.219 443.737 379.258 444.257 379.336 444.718C379.422 445.171 379.543 445.566 379.699 445.902V446.089H376.805C376.672 445.784 376.566 445.398 376.488 444.929C376.418 444.452 376.383 443.991 376.383 443.546ZM376.793 438.378L376.816 440.124H374.789C374.266 440.124 373.805 440.175 373.406 440.277C373.008 440.37 372.676 440.511 372.41 440.698C372.145 440.886 371.945 441.112 371.812 441.378C371.68 441.644 371.613 441.944 371.613 442.28C371.613 442.616 371.691 442.925 371.848 443.206C372.004 443.48 372.23 443.694 372.527 443.851C372.832 444.007 373.199 444.085 373.629 444.085C374.207 444.085 374.711 443.968 375.141 443.734C375.578 443.491 375.922 443.198 376.172 442.855C376.422 442.503 376.555 442.171 376.57 441.859L377.484 443.112C377.391 443.433 377.23 443.777 377.004 444.144C376.777 444.511 376.48 444.862 376.113 445.198C375.754 445.527 375.32 445.796 374.812 446.007C374.312 446.218 373.734 446.323 373.078 446.323C372.25 446.323 371.512 446.159 370.863 445.831C370.215 445.495 369.707 445.046 369.34 444.484C368.973 443.913 368.789 443.269 368.789 442.55C368.789 441.878 368.914 441.284 369.164 440.769C369.422 440.245 369.797 439.808 370.289 439.456C370.789 439.105 371.398 438.839 372.117 438.659C372.836 438.472 373.656 438.378 374.578 438.378H376.793ZM395.883 443.464V428.089H398.719V446.089H396.152L395.883 443.464ZM387.633 439.89V439.644C387.633 438.683 387.746 437.808 387.973 437.019C388.199 436.222 388.527 435.538 388.957 434.968C389.387 434.39 389.91 433.948 390.527 433.644C391.145 433.331 391.84 433.175 392.613 433.175C393.379 433.175 394.051 433.323 394.629 433.62C395.207 433.917 395.699 434.343 396.105 434.898C396.512 435.444 396.836 436.101 397.078 436.866C397.32 437.624 397.492 438.468 397.594 439.398V440.183C397.492 441.089 397.32 441.917 397.078 442.667C396.836 443.417 396.512 444.066 396.105 444.612C395.699 445.159 395.203 445.581 394.617 445.878C394.039 446.175 393.363 446.323 392.59 446.323C391.824 446.323 391.133 446.163 390.516 445.843C389.906 445.523 389.387 445.073 388.957 444.495C388.527 443.917 388.199 443.237 387.973 442.456C387.746 441.667 387.633 440.812 387.633 439.89ZM390.457 439.644V439.89C390.457 440.468 390.508 441.007 390.609 441.507C390.719 442.007 390.887 442.448 391.113 442.831C391.34 443.206 391.633 443.503 391.992 443.722C392.359 443.933 392.797 444.038 393.305 444.038C393.945 444.038 394.473 443.898 394.887 443.616C395.301 443.335 395.625 442.956 395.859 442.48C396.102 441.995 396.266 441.456 396.352 440.862V438.741C396.305 438.28 396.207 437.851 396.059 437.452C395.918 437.054 395.727 436.706 395.484 436.409C395.242 436.105 394.941 435.87 394.582 435.706C394.23 435.534 393.812 435.448 393.328 435.448C392.812 435.448 392.375 435.558 392.016 435.777C391.656 435.995 391.359 436.296 391.125 436.679C390.898 437.062 390.73 437.507 390.621 438.015C390.512 438.523 390.457 439.066 390.457 439.644ZM407.262 446.323C406.324 446.323 405.477 446.171 404.719 445.866C403.969 445.554 403.328 445.12 402.797 444.566C402.273 444.011 401.871 443.359 401.59 442.609C401.309 441.859 401.168 441.05 401.168 440.183V439.714C401.168 438.722 401.312 437.823 401.602 437.019C401.891 436.214 402.293 435.527 402.809 434.956C403.324 434.378 403.934 433.937 404.637 433.632C405.34 433.327 406.102 433.175 406.922 433.175C407.828 433.175 408.621 433.327 409.301 433.632C409.98 433.937 410.543 434.366 410.988 434.921C411.441 435.468 411.777 436.12 411.996 436.878C412.223 437.636 412.336 438.472 412.336 439.386V440.593H402.539V438.566H409.547V438.343C409.531 437.835 409.43 437.359 409.242 436.913C409.062 436.468 408.785 436.109 408.41 435.835C408.035 435.562 407.535 435.425 406.91 435.425C406.441 435.425 406.023 435.527 405.656 435.73C405.297 435.925 404.996 436.21 404.754 436.585C404.512 436.96 404.324 437.413 404.191 437.944C404.066 438.468 404.004 439.058 404.004 439.714V440.183C404.004 440.737 404.078 441.253 404.227 441.73C404.383 442.198 404.609 442.609 404.906 442.96C405.203 443.312 405.562 443.589 405.984 443.792C406.406 443.987 406.887 444.085 407.426 444.085C408.105 444.085 408.711 443.948 409.242 443.675C409.773 443.402 410.234 443.015 410.625 442.515L412.113 443.956C411.84 444.355 411.484 444.737 411.047 445.105C410.609 445.464 410.074 445.757 409.441 445.984C408.816 446.21 408.09 446.323 407.262 446.323ZM425.695 444.073C426.156 444.073 426.57 443.984 426.938 443.804C427.312 443.616 427.613 443.359 427.84 443.03C428.074 442.702 428.203 442.323 428.227 441.894H430.887C430.871 442.714 430.629 443.46 430.16 444.132C429.691 444.804 429.07 445.339 428.297 445.737C427.523 446.128 426.668 446.323 425.73 446.323C424.762 446.323 423.918 446.159 423.199 445.831C422.48 445.495 421.883 445.034 421.406 444.448C420.93 443.862 420.57 443.187 420.328 442.421C420.094 441.655 419.977 440.835 419.977 439.96V439.55C419.977 438.675 420.094 437.855 420.328 437.089C420.57 436.316 420.93 435.636 421.406 435.05C421.883 434.464 422.48 434.007 423.199 433.679C423.918 433.343 424.758 433.175 425.719 433.175C426.734 433.175 427.625 433.378 428.391 433.784C429.156 434.183 429.758 434.741 430.195 435.46C430.641 436.171 430.871 436.999 430.887 437.944H428.227C428.203 437.476 428.086 437.054 427.875 436.679C427.672 436.296 427.383 435.991 427.008 435.765C426.641 435.538 426.199 435.425 425.684 435.425C425.113 435.425 424.641 435.542 424.266 435.777C423.891 436.003 423.598 436.316 423.387 436.714C423.176 437.105 423.023 437.546 422.93 438.038C422.844 438.523 422.801 439.027 422.801 439.55V439.96C422.801 440.484 422.844 440.991 422.93 441.484C423.016 441.976 423.164 442.417 423.375 442.808C423.594 443.191 423.891 443.499 424.266 443.734C424.641 443.96 425.117 444.073 425.695 444.073ZM432.516 439.89V439.62C432.516 438.706 432.648 437.859 432.914 437.077C433.18 436.288 433.562 435.605 434.062 435.027C434.57 434.441 435.188 433.987 435.914 433.667C436.648 433.339 437.477 433.175 438.398 433.175C439.328 433.175 440.156 433.339 440.883 433.667C441.617 433.987 442.238 434.441 442.746 435.027C443.254 435.605 443.641 436.288 443.906 437.077C444.172 437.859 444.305 438.706 444.305 439.62V439.89C444.305 440.804 444.172 441.652 443.906 442.433C443.641 443.214 443.254 443.898 442.746 444.484C442.238 445.062 441.621 445.515 440.895 445.843C440.168 446.163 439.344 446.323 438.422 446.323C437.492 446.323 436.66 446.163 435.926 445.843C435.199 445.515 434.582 445.062 434.074 444.484C433.566 443.898 433.18 443.214 432.914 442.433C432.648 441.652 432.516 440.804 432.516 439.89ZM435.34 439.62V439.89C435.34 440.46 435.398 440.999 435.516 441.507C435.633 442.015 435.816 442.46 436.066 442.843C436.316 443.226 436.637 443.527 437.027 443.745C437.418 443.964 437.883 444.073 438.422 444.073C438.945 444.073 439.398 443.964 439.781 443.745C440.172 443.527 440.492 443.226 440.742 442.843C440.992 442.46 441.176 442.015 441.293 441.507C441.418 440.999 441.48 440.46 441.48 439.89V439.62C441.48 439.058 441.418 438.527 441.293 438.027C441.176 437.519 440.988 437.069 440.73 436.679C440.48 436.288 440.16 435.984 439.77 435.765C439.387 435.538 438.93 435.425 438.398 435.425C437.867 435.425 437.406 435.538 437.016 435.765C436.633 435.984 436.316 436.288 436.066 436.679C435.816 437.069 435.633 437.519 435.516 438.027C435.398 438.527 435.34 439.058 435.34 439.62ZM449.496 435.987V446.089H446.672V433.409H449.332L449.496 435.987ZM449.039 439.28L448.078 439.269C448.078 438.394 448.188 437.585 448.406 436.843C448.625 436.101 448.945 435.456 449.367 434.909C449.789 434.355 450.312 433.929 450.938 433.632C451.57 433.327 452.301 433.175 453.129 433.175C453.707 433.175 454.234 433.261 454.711 433.433C455.195 433.597 455.613 433.859 455.965 434.218C456.324 434.577 456.598 435.038 456.785 435.601C456.98 436.163 457.078 436.843 457.078 437.64V446.089H454.254V437.886C454.254 437.269 454.16 436.784 453.973 436.433C453.793 436.081 453.531 435.831 453.188 435.683C452.852 435.527 452.449 435.448 451.98 435.448C451.449 435.448 450.996 435.55 450.621 435.753C450.254 435.956 449.953 436.234 449.719 436.585C449.484 436.937 449.312 437.343 449.203 437.804C449.094 438.265 449.039 438.757 449.039 439.28ZM456.902 438.53L455.578 438.823C455.578 438.058 455.684 437.335 455.895 436.655C456.113 435.968 456.43 435.366 456.844 434.851C457.266 434.327 457.785 433.917 458.402 433.62C459.02 433.323 459.727 433.175 460.523 433.175C461.172 433.175 461.75 433.265 462.258 433.444C462.773 433.616 463.211 433.89 463.57 434.265C463.93 434.64 464.203 435.128 464.391 435.73C464.578 436.323 464.672 437.042 464.672 437.886V446.089H461.836V437.874C461.836 437.234 461.742 436.737 461.555 436.386C461.375 436.034 461.117 435.792 460.781 435.659C460.445 435.519 460.043 435.448 459.574 435.448C459.137 435.448 458.75 435.53 458.414 435.694C458.086 435.851 457.809 436.073 457.582 436.362C457.355 436.644 457.184 436.968 457.066 437.335C456.957 437.702 456.902 438.101 456.902 438.53ZM470.414 435.847V450.964H467.59V433.409H470.191L470.414 435.847ZM478.676 439.632V439.878C478.676 440.8 478.566 441.655 478.348 442.444C478.137 443.226 477.82 443.909 477.398 444.495C476.984 445.073 476.473 445.523 475.863 445.843C475.254 446.163 474.551 446.323 473.754 446.323C472.965 446.323 472.273 446.179 471.68 445.89C471.094 445.593 470.598 445.175 470.191 444.636C469.785 444.097 469.457 443.464 469.207 442.737C468.965 442.003 468.793 441.198 468.691 440.323V439.374C468.793 438.444 468.965 437.601 469.207 436.843C469.457 436.085 469.785 435.433 470.191 434.886C470.598 434.339 471.094 433.917 471.68 433.62C472.266 433.323 472.949 433.175 473.73 433.175C474.527 433.175 475.234 433.331 475.852 433.644C476.469 433.948 476.988 434.386 477.41 434.956C477.832 435.519 478.148 436.198 478.359 436.995C478.57 437.784 478.676 438.663 478.676 439.632ZM475.852 439.878V439.632C475.852 439.046 475.797 438.503 475.688 438.003C475.578 437.495 475.406 437.05 475.172 436.667C474.938 436.284 474.637 435.987 474.27 435.777C473.91 435.558 473.477 435.448 472.969 435.448C472.469 435.448 472.039 435.534 471.68 435.706C471.32 435.87 471.02 436.101 470.777 436.398C470.535 436.694 470.348 437.042 470.215 437.441C470.082 437.831 469.988 438.257 469.934 438.718V440.991C470.027 441.554 470.188 442.069 470.414 442.538C470.641 443.007 470.961 443.382 471.375 443.663C471.797 443.937 472.336 444.073 472.992 444.073C473.5 444.073 473.934 443.964 474.293 443.745C474.652 443.527 474.945 443.226 475.172 442.843C475.406 442.452 475.578 442.003 475.688 441.495C475.797 440.987 475.852 440.448 475.852 439.878ZM483.914 435.823V446.089H481.09V433.409H483.785L483.914 435.823ZM487.793 433.327L487.77 435.952C487.598 435.921 487.41 435.898 487.207 435.882C487.012 435.866 486.816 435.859 486.621 435.859C486.137 435.859 485.711 435.929 485.344 436.069C484.977 436.202 484.668 436.398 484.418 436.655C484.176 436.905 483.988 437.21 483.855 437.569C483.723 437.929 483.645 438.331 483.621 438.777L482.977 438.823C482.977 438.027 483.055 437.288 483.211 436.609C483.367 435.929 483.602 435.331 483.914 434.816C484.234 434.3 484.633 433.898 485.109 433.609C485.594 433.319 486.152 433.175 486.785 433.175C486.957 433.175 487.141 433.191 487.336 433.222C487.539 433.253 487.691 433.288 487.793 433.327ZM496.289 443.546V437.499C496.289 437.046 496.207 436.655 496.043 436.327C495.879 435.999 495.629 435.745 495.293 435.566C494.965 435.386 494.551 435.296 494.051 435.296C493.59 435.296 493.191 435.374 492.855 435.53C492.52 435.687 492.258 435.898 492.07 436.163C491.883 436.429 491.789 436.73 491.789 437.066H488.977C488.977 436.566 489.098 436.081 489.34 435.612C489.582 435.144 489.934 434.726 490.395 434.359C490.855 433.991 491.406 433.702 492.047 433.491C492.688 433.28 493.406 433.175 494.203 433.175C495.156 433.175 496 433.335 496.734 433.655C497.477 433.976 498.059 434.46 498.48 435.109C498.91 435.749 499.125 436.554 499.125 437.523V443.159C499.125 443.737 499.164 444.257 499.242 444.718C499.328 445.171 499.449 445.566 499.605 445.902V446.089H496.711C496.578 445.784 496.473 445.398 496.395 444.929C496.324 444.452 496.289 443.991 496.289 443.546ZM496.699 438.378L496.723 440.124H494.695C494.172 440.124 493.711 440.175 493.312 440.277C492.914 440.37 492.582 440.511 492.316 440.698C492.051 440.886 491.852 441.112 491.719 441.378C491.586 441.644 491.52 441.944 491.52 442.28C491.52 442.616 491.598 442.925 491.754 443.206C491.91 443.48 492.137 443.694 492.434 443.851C492.738 444.007 493.105 444.085 493.535 444.085C494.113 444.085 494.617 443.968 495.047 443.734C495.484 443.491 495.828 443.198 496.078 442.855C496.328 442.503 496.461 442.171 496.477 441.859L497.391 443.112C497.297 443.433 497.137 443.777 496.91 444.144C496.684 444.511 496.387 444.862 496.02 445.198C495.66 445.527 495.227 445.796 494.719 446.007C494.219 446.218 493.641 446.323 492.984 446.323C492.156 446.323 491.418 446.159 490.77 445.831C490.121 445.495 489.613 445.046 489.246 444.484C488.879 443.913 488.695 443.269 488.695 442.55C488.695 441.878 488.82 441.284 489.07 440.769C489.328 440.245 489.703 439.808 490.195 439.456C490.695 439.105 491.305 438.839 492.023 438.659C492.742 438.472 493.562 438.378 494.484 438.378H496.699ZM509.191 442.655C509.191 442.374 509.121 442.12 508.98 441.894C508.84 441.659 508.57 441.448 508.172 441.261C507.781 441.073 507.203 440.902 506.438 440.745C505.766 440.597 505.148 440.421 504.586 440.218C504.031 440.007 503.555 439.753 503.156 439.456C502.758 439.159 502.449 438.808 502.23 438.402C502.012 437.995 501.902 437.527 501.902 436.995C501.902 436.48 502.016 435.991 502.242 435.53C502.469 435.069 502.793 434.663 503.215 434.312C503.637 433.96 504.148 433.683 504.75 433.48C505.359 433.277 506.039 433.175 506.789 433.175C507.852 433.175 508.762 433.355 509.52 433.714C510.285 434.066 510.871 434.546 511.277 435.155C511.684 435.757 511.887 436.437 511.887 437.194H509.062C509.062 436.859 508.977 436.546 508.805 436.257C508.641 435.96 508.391 435.722 508.055 435.542C507.719 435.355 507.297 435.261 506.789 435.261C506.305 435.261 505.902 435.339 505.582 435.495C505.27 435.644 505.035 435.839 504.879 436.081C504.73 436.323 504.656 436.589 504.656 436.878C504.656 437.089 504.695 437.28 504.773 437.452C504.859 437.616 505 437.769 505.195 437.909C505.391 438.042 505.656 438.167 505.992 438.284C506.336 438.402 506.766 438.515 507.281 438.624C508.25 438.827 509.082 439.089 509.777 439.409C510.48 439.722 511.02 440.128 511.395 440.628C511.77 441.12 511.957 441.745 511.957 442.503C511.957 443.066 511.836 443.581 511.594 444.05C511.359 444.511 511.016 444.913 510.562 445.257C510.109 445.593 509.566 445.855 508.934 446.042C508.309 446.23 507.605 446.323 506.824 446.323C505.676 446.323 504.703 446.12 503.906 445.714C503.109 445.3 502.504 444.773 502.09 444.132C501.684 443.484 501.48 442.812 501.48 442.116H504.211C504.242 442.64 504.387 443.058 504.645 443.37C504.91 443.675 505.238 443.898 505.629 444.038C506.027 444.171 506.438 444.237 506.859 444.237C507.367 444.237 507.793 444.171 508.137 444.038C508.48 443.898 508.742 443.71 508.922 443.476C509.102 443.234 509.191 442.96 509.191 442.655ZM225.188 471.464V456.089H228.023V474.089H225.457L225.188 471.464ZM216.938 467.89V467.644C216.938 466.683 217.051 465.808 217.277 465.019C217.504 464.222 217.832 463.538 218.262 462.968C218.691 462.39 219.215 461.948 219.832 461.644C220.449 461.331 221.145 461.175 221.918 461.175C222.684 461.175 223.355 461.323 223.934 461.62C224.512 461.917 225.004 462.343 225.41 462.898C225.816 463.444 226.141 464.101 226.383 464.866C226.625 465.624 226.797 466.468 226.898 467.398V468.183C226.797 469.089 226.625 469.917 226.383 470.667C226.141 471.417 225.816 472.066 225.41 472.612C225.004 473.159 224.508 473.581 223.922 473.878C223.344 474.175 222.668 474.323 221.895 474.323C221.129 474.323 220.438 474.163 219.82 473.843C219.211 473.523 218.691 473.073 218.262 472.495C217.832 471.917 217.504 471.237 217.277 470.456C217.051 469.667 216.938 468.812 216.938 467.89ZM219.762 467.644V467.89C219.762 468.468 219.812 469.007 219.914 469.507C220.023 470.007 220.191 470.448 220.418 470.831C220.645 471.206 220.938 471.503 221.297 471.722C221.664 471.933 222.102 472.038 222.609 472.038C223.25 472.038 223.777 471.898 224.191 471.616C224.605 471.335 224.93 470.956 225.164 470.48C225.406 469.995 225.57 469.456 225.656 468.862V466.741C225.609 466.28 225.512 465.851 225.363 465.452C225.223 465.054 225.031 464.706 224.789 464.409C224.547 464.105 224.246 463.87 223.887 463.706C223.535 463.534 223.117 463.448 222.633 463.448C222.117 463.448 221.68 463.558 221.32 463.777C220.961 463.995 220.664 464.296 220.43 464.679C220.203 465.062 220.035 465.507 219.926 466.015C219.816 466.523 219.762 467.066 219.762 467.644ZM236.566 474.323C235.629 474.323 234.781 474.171 234.023 473.866C233.273 473.554 232.633 473.12 232.102 472.566C231.578 472.011 231.176 471.359 230.895 470.609C230.613 469.859 230.473 469.05 230.473 468.183V467.714C230.473 466.722 230.617 465.823 230.906 465.019C231.195 464.214 231.598 463.527 232.113 462.956C232.629 462.378 233.238 461.937 233.941 461.632C234.645 461.327 235.406 461.175 236.227 461.175C237.133 461.175 237.926 461.327 238.605 461.632C239.285 461.937 239.848 462.366 240.293 462.921C240.746 463.468 241.082 464.12 241.301 464.878C241.527 465.636 241.641 466.472 241.641 467.386V468.593H231.844V466.566H238.852V466.343C238.836 465.835 238.734 465.359 238.547 464.913C238.367 464.468 238.09 464.109 237.715 463.835C237.34 463.562 236.84 463.425 236.215 463.425C235.746 463.425 235.328 463.527 234.961 463.73C234.602 463.925 234.301 464.21 234.059 464.585C233.816 464.96 233.629 465.413 233.496 465.944C233.371 466.468 233.309 467.058 233.309 467.714V468.183C233.309 468.737 233.383 469.253 233.531 469.73C233.688 470.198 233.914 470.609 234.211 470.96C234.508 471.312 234.867 471.589 235.289 471.792C235.711 471.987 236.191 472.085 236.73 472.085C237.41 472.085 238.016 471.948 238.547 471.675C239.078 471.402 239.539 471.015 239.93 470.515L241.418 471.956C241.145 472.355 240.789 472.737 240.352 473.105C239.914 473.464 239.379 473.757 238.746 473.984C238.121 474.21 237.395 474.323 236.566 474.323ZM252.656 463.823V474.089H249.832V461.409H252.527L252.656 463.823ZM256.535 461.327L256.512 463.952C256.34 463.921 256.152 463.898 255.949 463.882C255.754 463.866 255.559 463.859 255.363 463.859C254.879 463.859 254.453 463.929 254.086 464.069C253.719 464.202 253.41 464.398 253.16 464.655C252.918 464.905 252.73 465.21 252.598 465.569C252.465 465.929 252.387 466.331 252.363 466.777L251.719 466.823C251.719 466.027 251.797 465.288 251.953 464.609C252.109 463.929 252.344 463.331 252.656 462.816C252.977 462.3 253.375 461.898 253.852 461.609C254.336 461.319 254.895 461.175 255.527 461.175C255.699 461.175 255.883 461.191 256.078 461.222C256.281 461.253 256.434 461.288 256.535 461.327ZM257.461 467.89V467.62C257.461 466.706 257.594 465.859 257.859 465.077C258.125 464.288 258.508 463.605 259.008 463.027C259.516 462.441 260.133 461.987 260.859 461.667C261.594 461.339 262.422 461.175 263.344 461.175C264.273 461.175 265.102 461.339 265.828 461.667C266.562 461.987 267.184 462.441 267.691 463.027C268.199 463.605 268.586 464.288 268.852 465.077C269.117 465.859 269.25 466.706 269.25 467.62V467.89C269.25 468.804 269.117 469.652 268.852 470.433C268.586 471.214 268.199 471.898 267.691 472.484C267.184 473.062 266.566 473.515 265.84 473.843C265.113 474.163 264.289 474.323 263.367 474.323C262.438 474.323 261.605 474.163 260.871 473.843C260.145 473.515 259.527 473.062 259.02 472.484C258.512 471.898 258.125 471.214 257.859 470.433C257.594 469.652 257.461 468.804 257.461 467.89ZM260.285 467.62V467.89C260.285 468.46 260.344 468.999 260.461 469.507C260.578 470.015 260.762 470.46 261.012 470.843C261.262 471.226 261.582 471.527 261.973 471.745C262.363 471.964 262.828 472.073 263.367 472.073C263.891 472.073 264.344 471.964 264.727 471.745C265.117 471.527 265.438 471.226 265.688 470.843C265.938 470.46 266.121 470.015 266.238 469.507C266.363 468.999 266.426 468.46 266.426 467.89V467.62C266.426 467.058 266.363 466.527 266.238 466.027C266.121 465.519 265.934 465.069 265.676 464.679C265.426 464.288 265.105 463.984 264.715 463.765C264.332 463.538 263.875 463.425 263.344 463.425C262.812 463.425 262.352 463.538 261.961 463.765C261.578 463.984 261.262 464.288 261.012 464.679C260.762 465.069 260.578 465.519 260.461 466.027C260.344 466.527 260.285 467.058 260.285 467.62ZM279.246 471.101V461.409H282.082V474.089H279.41L279.246 471.101ZM279.645 468.464L280.594 468.441C280.594 469.292 280.5 470.077 280.312 470.796C280.125 471.507 279.836 472.128 279.445 472.659C279.055 473.183 278.555 473.593 277.945 473.89C277.336 474.179 276.605 474.323 275.754 474.323C275.137 474.323 274.57 474.234 274.055 474.054C273.539 473.874 273.094 473.597 272.719 473.222C272.352 472.847 272.066 472.359 271.863 471.757C271.66 471.155 271.559 470.437 271.559 469.601V461.409H274.383V469.624C274.383 470.085 274.438 470.472 274.547 470.784C274.656 471.089 274.805 471.335 274.992 471.523C275.18 471.71 275.398 471.843 275.648 471.921C275.898 471.999 276.164 472.038 276.445 472.038C277.25 472.038 277.883 471.882 278.344 471.569C278.812 471.249 279.145 470.819 279.34 470.28C279.543 469.741 279.645 469.136 279.645 468.464ZM287.812 463.847V478.964H284.988V461.409H287.59L287.812 463.847ZM296.074 467.632V467.878C296.074 468.8 295.965 469.655 295.746 470.444C295.535 471.226 295.219 471.909 294.797 472.495C294.383 473.073 293.871 473.523 293.262 473.843C292.652 474.163 291.949 474.323 291.152 474.323C290.363 474.323 289.672 474.179 289.078 473.89C288.492 473.593 287.996 473.175 287.59 472.636C287.184 472.097 286.855 471.464 286.605 470.737C286.363 470.003 286.191 469.198 286.09 468.323V467.374C286.191 466.444 286.363 465.601 286.605 464.843C286.855 464.085 287.184 463.433 287.59 462.886C287.996 462.339 288.492 461.917 289.078 461.62C289.664 461.323 290.348 461.175 291.129 461.175C291.926 461.175 292.633 461.331 293.25 461.644C293.867 461.948 294.387 462.386 294.809 462.956C295.23 463.519 295.547 464.198 295.758 464.995C295.969 465.784 296.074 466.663 296.074 467.632ZM293.25 467.878V467.632C293.25 467.046 293.195 466.503 293.086 466.003C292.977 465.495 292.805 465.05 292.57 464.667C292.336 464.284 292.035 463.987 291.668 463.777C291.309 463.558 290.875 463.448 290.367 463.448C289.867 463.448 289.438 463.534 289.078 463.706C288.719 463.87 288.418 464.101 288.176 464.398C287.934 464.694 287.746 465.042 287.613 465.441C287.48 465.831 287.387 466.257 287.332 466.718V468.991C287.426 469.554 287.586 470.069 287.812 470.538C288.039 471.007 288.359 471.382 288.773 471.663C289.195 471.937 289.734 472.073 290.391 472.073C290.898 472.073 291.332 471.964 291.691 471.745C292.051 471.527 292.344 471.226 292.57 470.843C292.805 470.452 292.977 470.003 293.086 469.495C293.195 468.987 293.25 468.448 293.25 467.878ZM305.625 471.546V465.499C305.625 465.046 305.543 464.655 305.379 464.327C305.215 463.999 304.965 463.745 304.629 463.566C304.301 463.386 303.887 463.296 303.387 463.296C302.926 463.296 302.527 463.374 302.191 463.53C301.855 463.687 301.594 463.898 301.406 464.163C301.219 464.429 301.125 464.73 301.125 465.066H298.312C298.312 464.566 298.434 464.081 298.676 463.612C298.918 463.144 299.27 462.726 299.73 462.359C300.191 461.991 300.742 461.702 301.383 461.491C302.023 461.28 302.742 461.175 303.539 461.175C304.492 461.175 305.336 461.335 306.07 461.655C306.812 461.976 307.395 462.46 307.816 463.109C308.246 463.749 308.461 464.554 308.461 465.523V471.159C308.461 471.737 308.5 472.257 308.578 472.718C308.664 473.171 308.785 473.566 308.941 473.902V474.089H306.047C305.914 473.784 305.809 473.398 305.73 472.929C305.66 472.452 305.625 471.991 305.625 471.546ZM306.035 466.378L306.059 468.124H304.031C303.508 468.124 303.047 468.175 302.648 468.277C302.25 468.37 301.918 468.511 301.652 468.698C301.387 468.886 301.188 469.112 301.055 469.378C300.922 469.644 300.855 469.944 300.855 470.28C300.855 470.616 300.934 470.925 301.09 471.206C301.246 471.48 301.473 471.694 301.77 471.851C302.074 472.007 302.441 472.085 302.871 472.085C303.449 472.085 303.953 471.968 304.383 471.734C304.82 471.491 305.164 471.198 305.414 470.855C305.664 470.503 305.797 470.171 305.812 469.859L306.727 471.112C306.633 471.433 306.473 471.777 306.246 472.144C306.02 472.511 305.723 472.862 305.355 473.198C304.996 473.527 304.562 473.796 304.055 474.007C303.555 474.218 302.977 474.323 302.32 474.323C301.492 474.323 300.754 474.159 300.105 473.831C299.457 473.495 298.949 473.046 298.582 472.484C298.215 471.913 298.031 471.269 298.031 470.55C298.031 469.878 298.156 469.284 298.406 468.769C298.664 468.245 299.039 467.808 299.531 467.456C300.031 467.105 300.641 466.839 301.359 466.659C302.078 466.472 302.898 466.378 303.82 466.378H306.035ZM318.527 470.655C318.527 470.374 318.457 470.12 318.316 469.894C318.176 469.659 317.906 469.448 317.508 469.261C317.117 469.073 316.539 468.902 315.773 468.745C315.102 468.597 314.484 468.421 313.922 468.218C313.367 468.007 312.891 467.753 312.492 467.456C312.094 467.159 311.785 466.808 311.566 466.402C311.348 465.995 311.238 465.527 311.238 464.995C311.238 464.48 311.352 463.991 311.578 463.53C311.805 463.069 312.129 462.663 312.551 462.312C312.973 461.96 313.484 461.683 314.086 461.48C314.695 461.277 315.375 461.175 316.125 461.175C317.188 461.175 318.098 461.355 318.855 461.714C319.621 462.066 320.207 462.546 320.613 463.155C321.02 463.757 321.223 464.437 321.223 465.194H318.398C318.398 464.859 318.312 464.546 318.141 464.257C317.977 463.96 317.727 463.722 317.391 463.542C317.055 463.355 316.633 463.261 316.125 463.261C315.641 463.261 315.238 463.339 314.918 463.495C314.605 463.644 314.371 463.839 314.215 464.081C314.066 464.323 313.992 464.589 313.992 464.878C313.992 465.089 314.031 465.28 314.109 465.452C314.195 465.616 314.336 465.769 314.531 465.909C314.727 466.042 314.992 466.167 315.328 466.284C315.672 466.402 316.102 466.515 316.617 466.624C317.586 466.827 318.418 467.089 319.113 467.409C319.816 467.722 320.355 468.128 320.73 468.628C321.105 469.12 321.293 469.745 321.293 470.503C321.293 471.066 321.172 471.581 320.93 472.05C320.695 472.511 320.352 472.913 319.898 473.257C319.445 473.593 318.902 473.855 318.27 474.042C317.645 474.23 316.941 474.323 316.16 474.323C315.012 474.323 314.039 474.12 313.242 473.714C312.445 473.3 311.84 472.773 311.426 472.132C311.02 471.484 310.816 470.812 310.816 470.116H313.547C313.578 470.64 313.723 471.058 313.98 471.37C314.246 471.675 314.574 471.898 314.965 472.038C315.363 472.171 315.773 472.237 316.195 472.237C316.703 472.237 317.129 472.171 317.473 472.038C317.816 471.898 318.078 471.71 318.258 471.476C318.438 471.234 318.527 470.96 318.527 470.655ZM329.203 467.89V467.62C329.203 466.706 329.336 465.859 329.602 465.077C329.867 464.288 330.25 463.605 330.75 463.027C331.258 462.441 331.875 461.987 332.602 461.667C333.336 461.339 334.164 461.175 335.086 461.175C336.016 461.175 336.844 461.339 337.57 461.667C338.305 461.987 338.926 462.441 339.434 463.027C339.941 463.605 340.328 464.288 340.594 465.077C340.859 465.859 340.992 466.706 340.992 467.62V467.89C340.992 468.804 340.859 469.652 340.594 470.433C340.328 471.214 339.941 471.898 339.434 472.484C338.926 473.062 338.309 473.515 337.582 473.843C336.855 474.163 336.031 474.323 335.109 474.323C334.18 474.323 333.348 474.163 332.613 473.843C331.887 473.515 331.27 473.062 330.762 472.484C330.254 471.898 329.867 471.214 329.602 470.433C329.336 469.652 329.203 468.804 329.203 467.89ZM332.027 467.62V467.89C332.027 468.46 332.086 468.999 332.203 469.507C332.32 470.015 332.504 470.46 332.754 470.843C333.004 471.226 333.324 471.527 333.715 471.745C334.105 471.964 334.57 472.073 335.109 472.073C335.633 472.073 336.086 471.964 336.469 471.745C336.859 471.527 337.18 471.226 337.43 470.843C337.68 470.46 337.863 470.015 337.98 469.507C338.105 468.999 338.168 468.46 338.168 467.89V467.62C338.168 467.058 338.105 466.527 337.98 466.027C337.863 465.519 337.676 465.069 337.418 464.679C337.168 464.288 336.848 463.984 336.457 463.765C336.074 463.538 335.617 463.425 335.086 463.425C334.555 463.425 334.094 463.538 333.703 463.765C333.32 463.984 333.004 464.288 332.754 464.679C332.504 465.069 332.32 465.519 332.203 466.027C332.086 466.527 332.027 467.058 332.027 467.62ZM346.16 464.116V474.089H343.336V461.409H345.996L346.16 464.116ZM345.656 467.28L344.742 467.269C344.75 466.37 344.875 465.546 345.117 464.796C345.367 464.046 345.711 463.402 346.148 462.862C346.594 462.323 347.125 461.909 347.742 461.62C348.359 461.323 349.047 461.175 349.805 461.175C350.414 461.175 350.965 461.261 351.457 461.433C351.957 461.597 352.383 461.866 352.734 462.241C353.094 462.616 353.367 463.105 353.555 463.706C353.742 464.3 353.836 465.03 353.836 465.898V474.089H351V465.886C351 465.277 350.91 464.796 350.73 464.444C350.559 464.085 350.305 463.831 349.969 463.683C349.641 463.527 349.23 463.448 348.738 463.448C348.254 463.448 347.82 463.55 347.438 463.753C347.055 463.956 346.73 464.234 346.465 464.585C346.207 464.937 346.008 465.343 345.867 465.804C345.727 466.265 345.656 466.757 345.656 467.28ZM359.742 456.089V474.089H356.906V456.089H359.742ZM365.859 461.409V474.089H363.023V461.409H365.859ZM362.836 458.081C362.836 457.652 362.977 457.296 363.258 457.015C363.547 456.726 363.945 456.581 364.453 456.581C364.953 456.581 365.348 456.726 365.637 457.015C365.926 457.296 366.07 457.652 366.07 458.081C366.07 458.503 365.926 458.855 365.637 459.136C365.348 459.417 364.953 459.558 364.453 459.558C363.945 459.558 363.547 459.417 363.258 459.136C362.977 458.855 362.836 458.503 362.836 458.081ZM371.754 464.116V474.089H368.93V461.409H371.59L371.754 464.116ZM371.25 467.28L370.336 467.269C370.344 466.37 370.469 465.546 370.711 464.796C370.961 464.046 371.305 463.402 371.742 462.862C372.188 462.323 372.719 461.909 373.336 461.62C373.953 461.323 374.641 461.175 375.398 461.175C376.008 461.175 376.559 461.261 377.051 461.433C377.551 461.597 377.977 461.866 378.328 462.241C378.688 462.616 378.961 463.105 379.148 463.706C379.336 464.3 379.43 465.03 379.43 465.898V474.089H376.594V465.886C376.594 465.277 376.504 464.796 376.324 464.444C376.152 464.085 375.898 463.831 375.562 463.683C375.234 463.527 374.824 463.448 374.332 463.448C373.848 463.448 373.414 463.55 373.031 463.753C372.648 463.956 372.324 464.234 372.059 464.585C371.801 464.937 371.602 465.343 371.461 465.804C371.32 466.265 371.25 466.757 371.25 467.28ZM387.902 474.323C386.965 474.323 386.117 474.171 385.359 473.866C384.609 473.554 383.969 473.12 383.438 472.566C382.914 472.011 382.512 471.359 382.23 470.609C381.949 469.859 381.809 469.05 381.809 468.183V467.714C381.809 466.722 381.953 465.823 382.242 465.019C382.531 464.214 382.934 463.527 383.449 462.956C383.965 462.378 384.574 461.937 385.277 461.632C385.98 461.327 386.742 461.175 387.562 461.175C388.469 461.175 389.262 461.327 389.941 461.632C390.621 461.937 391.184 462.366 391.629 462.921C392.082 463.468 392.418 464.12 392.637 464.878C392.863 465.636 392.977 466.472 392.977 467.386V468.593H383.18V466.566H390.188V466.343C390.172 465.835 390.07 465.359 389.883 464.913C389.703 464.468 389.426 464.109 389.051 463.835C388.676 463.562 388.176 463.425 387.551 463.425C387.082 463.425 386.664 463.527 386.297 463.73C385.938 463.925 385.637 464.21 385.395 464.585C385.152 464.96 384.965 465.413 384.832 465.944C384.707 466.468 384.645 467.058 384.645 467.714V468.183C384.645 468.737 384.719 469.253 384.867 469.73C385.023 470.198 385.25 470.609 385.547 470.96C385.844 471.312 386.203 471.589 386.625 471.792C387.047 471.987 387.527 472.085 388.066 472.085C388.746 472.085 389.352 471.948 389.883 471.675C390.414 471.402 390.875 471.015 391.266 470.515L392.754 471.956C392.48 472.355 392.125 472.737 391.688 473.105C391.25 473.464 390.715 473.757 390.082 473.984C389.457 474.21 388.73 474.323 387.902 474.323Z" fill="white"/>
<path d="M590.569 736.29C585.526 736.29 581.437 732.119 581.437 726.976C581.437 721.832 585.526 717.662 590.569 717.662C595.612 717.662 599.701 721.832 599.701 726.976C599.701 732.103 595.612 736.29 590.569 736.29Z" stroke="#F29F05" stroke-width="3" stroke-miterlimit="10" stroke-linecap="round" stroke-linejoin="round"/>
<path d="M584.269 733.708L577.811 740.278" stroke="#F29F05" stroke-width="3" stroke-miterlimit="10" stroke-linecap="round" stroke-linejoin="round"/>
<path d="M419.217 59.9975L409.609 69.7963" stroke="#F29F05" stroke-width="3" stroke-miterlimit="10" stroke-linecap="round" stroke-linejoin="round"/>
<path d="M419.217 69.7963L409.609 59.9975" stroke="#F29F05" stroke-width="3" stroke-miterlimit="10" stroke-linecap="round" stroke-linejoin="round"/>
<path d="M405.461 649.48L395.854 659.279" stroke="#F29F05" stroke-width="3" stroke-miterlimit="10" stroke-linecap="round" stroke-linejoin="round"/>
<path d="M405.461 659.279L395.854 649.48" stroke="#F29F05" stroke-width="3" stroke-miterlimit="10" stroke-linecap="round" stroke-linejoin="round"/>
<path d="M105.431 250.016L91.8441 250.016" stroke="#F29F05" stroke-width="3" stroke-miterlimit="10" stroke-linecap="round" stroke-linejoin="round"/>
<path d="M98.6389 256.962L98.6389 243.089" stroke="#F29F05" stroke-width="3" stroke-miterlimit="10" stroke-linecap="round" stroke-linejoin="round"/>
<path d="M502.866 199.913C498.316 199.913 494.609 196.149 494.609 191.492C494.609 186.851 498.3 183.071 502.866 183.071C507.416 183.071 511.123 186.835 511.123 191.492C511.107 196.149 507.416 199.913 502.866 199.913Z" stroke="#F29F05" stroke-width="3" stroke-miterlimit="10" stroke-linecap="round" stroke-linejoin="round"/>
<path d="M667.743 411.955C663.193 411.955 659.486 408.191 659.486 403.534C659.486 398.894 663.177 395.113 667.743 395.113C672.293 395.113 676 398.877 676 403.534C675.984 408.191 672.293 411.955 667.743 411.955Z" stroke="#F29F05" stroke-width="3" stroke-miterlimit="10" stroke-linecap="round" stroke-linejoin="round"/>
<path d="M148.591 541.938C144.041 541.938 140.334 538.174 140.334 533.517C140.334 528.876 144.025 525.095 148.591 525.095C153.141 525.095 156.848 528.86 156.848 533.517C156.832 538.174 153.141 541.938 148.591 541.938Z" stroke="#F29F05" stroke-width="3" stroke-miterlimit="10" stroke-linecap="round" stroke-linejoin="round"/>
<path d="M247.224 81.7884C247.224 83.4728 248.563 84.8384 250.214 84.8384C251.866 84.8384 253.205 83.4728 253.205 81.7884C253.205 80.104 251.866 78.7385 250.214 78.7385C248.563 78.7385 247.224 80.104 247.224 81.7884Z" fill="white"/>
<path d="M247.224 103.094C247.224 104.778 248.563 106.144 250.214 106.144C251.866 106.144 253.205 104.778 253.205 103.094C253.205 101.409 251.866 100.044 250.214 100.044C248.563 100.044 247.224 101.409 247.224 103.094Z" fill="white"/>
<path d="M247.224 124.38C247.224 126.064 248.563 127.43 250.214 127.43C251.866 127.43 253.205 126.064 253.205 124.38C253.205 122.695 251.866 121.33 250.214 121.33C248.563 121.33 247.224 122.695 247.224 124.38Z" fill="white"/>
<path d="M247.224 145.682C247.224 147.366 248.563 148.732 250.214 148.732C251.866 148.732 253.205 147.366 253.205 145.682C253.205 143.997 251.866 142.632 250.214 142.632C248.563 142.632 247.224 143.997 247.224 145.682Z" fill="white"/>
<path d="M247.224 166.97C247.224 168.654 248.563 170.02 250.214 170.02C251.866 170.02 253.205 168.654 253.205 166.97C253.205 165.285 251.866 163.92 250.214 163.92C248.563 163.92 247.224 165.285 247.224 166.97Z" fill="white"/>
<path d="M247.224 188.272C247.224 189.956 248.563 191.322 250.214 191.322C251.866 191.322 253.205 189.956 253.205 188.272C253.205 186.588 251.866 185.222 250.214 185.222C248.563 185.222 247.224 186.588 247.224 188.272Z" fill="white"/>
<path d="M226.35 81.7886C226.35 83.4731 227.689 84.8386 229.341 84.8386C230.992 84.8386 232.331 83.4731 232.331 81.7886C232.331 80.1042 230.992 78.7387 229.341 78.7387C227.689 78.7387 226.35 80.1042 226.35 81.7886Z" fill="white"/>
<path d="M226.35 103.094C226.35 104.778 227.689 106.144 229.341 106.144C230.992 106.144 232.331 104.778 232.331 103.094C232.331 101.409 230.992 100.044 229.341 100.044C227.689 100.044 226.35 101.409 226.35 103.094Z" fill="white"/>
<path d="M226.35 124.38C226.35 126.064 227.689 127.43 229.341 127.43C230.992 127.43 232.331 126.064 232.331 124.38C232.331 122.695 230.992 121.33 229.341 121.33C227.689 121.33 226.35 122.695 226.35 124.38Z" fill="white"/>
<path d="M226.35 145.682C226.35 147.366 227.689 148.732 229.341 148.732C230.992 148.732 232.331 147.366 232.331 145.682C232.331 143.997 230.992 142.632 229.341 142.632C227.689 142.632 226.35 143.997 226.35 145.682Z" fill="white"/>
<path d="M226.35 166.97C226.35 168.654 227.689 170.02 229.341 170.02C230.992 170.02 232.331 168.654 232.331 166.97C232.331 165.285 230.992 163.92 229.341 163.92C227.689 163.92 226.35 165.285 226.35 166.97Z" fill="white"/>
<path d="M226.35 188.272C226.35 189.956 227.689 191.322 229.341 191.322C230.992 191.322 232.331 189.956 232.331 188.272C232.331 186.588 230.992 185.222 229.341 185.222C227.689 185.222 226.35 186.588 226.35 188.272Z" fill="white"/>
<path d="M205.461 81.7886C205.461 83.4731 206.8 84.8386 208.452 84.8386C210.103 84.8386 211.442 83.4731 211.442 81.7886C211.442 80.1042 210.103 78.7387 208.452 78.7387C206.8 78.7387 205.461 80.1042 205.461 81.7886Z" fill="white"/>
<path d="M205.461 103.094C205.461 104.778 206.8 106.144 208.452 106.144C210.103 106.144 211.442 104.778 211.442 103.094C211.442 101.409 210.103 100.044 208.452 100.044C206.8 100.044 205.461 101.409 205.461 103.094Z" fill="white"/>
<path d="M205.461 124.38C205.461 126.064 206.8 127.43 208.452 127.43C210.103 127.43 211.442 126.064 211.442 124.38C211.442 122.695 210.103 121.33 208.452 121.33C206.8 121.33 205.461 122.695 205.461 124.38Z" fill="white"/>
<path d="M205.461 145.682C205.461 147.366 206.8 148.732 208.452 148.732C210.103 148.732 211.442 147.366 211.442 145.682C211.442 143.997 210.103 142.632 208.452 142.632C206.8 142.632 205.461 143.997 205.461 145.682Z" fill="white"/>
<path d="M205.461 166.97C205.461 168.654 206.8 170.02 208.452 170.02C210.103 170.02 211.442 168.654 211.442 166.97C211.442 165.285 210.103 163.92 208.452 163.92C206.8 163.92 205.461 165.285 205.461 166.97Z" fill="white"/>
<path d="M205.461 188.272C205.461 189.956 206.8 191.322 208.452 191.322C210.103 191.322 211.442 189.956 211.442 188.272C211.442 186.588 210.103 185.222 208.452 185.222C206.8 185.222 205.461 186.588 205.461 188.272Z" fill="white"/>
<path d="M184.588 81.7886C184.588 83.4731 185.927 84.8386 187.579 84.8386C189.23 84.8386 190.569 83.4731 190.569 81.7886C190.569 80.1042 189.23 78.7387 187.579 78.7387C185.927 78.7387 184.588 80.1042 184.588 81.7886Z" fill="white"/>
<path d="M184.588 103.094C184.588 104.778 185.927 106.144 187.579 106.144C189.23 106.144 190.569 104.778 190.569 103.094C190.569 101.409 189.23 100.044 187.579 100.044C185.927 100.044 184.588 101.409 184.588 103.094Z" fill="white"/>
<path d="M184.588 124.38C184.588 126.064 185.927 127.43 187.579 127.43C189.23 127.43 190.569 126.064 190.569 124.38C190.569 122.695 189.23 121.33 187.579 121.33C185.927 121.33 184.588 122.695 184.588 124.38Z" fill="white"/>
<path d="M184.588 145.682C184.588 147.366 185.927 148.732 187.579 148.732C189.23 148.732 190.569 147.366 190.569 145.682C190.569 143.997 189.23 142.632 187.579 142.632C185.927 142.632 184.588 143.997 184.588 145.682Z" fill="white"/>
<path d="M184.588 166.97C184.588 168.654 185.927 170.02 187.579 170.02C189.23 170.02 190.569 168.654 190.569 166.97C190.569 165.285 189.23 163.92 187.579 163.92C185.927 163.92 184.588 165.285 184.588 166.97Z" fill="white"/>
<path d="M184.588 188.272C184.588 189.956 185.927 191.322 187.579 191.322C189.23 191.322 190.569 189.956 190.569 188.272C190.569 186.588 189.23 185.222 187.579 185.222C185.927 185.222 184.588 186.588 184.588 188.272Z" fill="white"/>
<path d="M587.788 547.886C587.788 549.57 589.127 550.936 590.779 550.936C592.43 550.936 593.769 549.57 593.769 547.886C593.769 546.201 592.43 544.836 590.779 544.836C589.127 544.836 587.788 546.201 587.788 547.886Z" fill="white"/>
<path d="M587.789 569.172C587.789 570.857 589.128 572.222 590.78 572.222C592.431 572.222 593.77 570.857 593.77 569.172C593.77 567.488 592.431 566.122 590.78 566.122C589.128 566.122 587.789 567.488 587.789 569.172Z" fill="white"/>
<path d="M587.789 590.474C587.789 592.158 589.128 593.524 590.78 593.524C592.431 593.524 593.77 592.158 593.77 590.474C593.77 588.789 592.431 587.424 590.78 587.424C589.128 587.424 587.789 588.789 587.789 590.474Z" fill="white"/>
<path d="M566.9 547.884C566.9 549.568 568.239 550.934 569.891 550.934C571.542 550.934 572.881 549.568 572.881 547.884C572.881 546.199 571.542 544.834 569.891 544.834C568.239 544.834 566.9 546.199 566.9 547.884Z" fill="white"/>
<path d="M566.9 569.172C566.9 570.857 568.239 572.222 569.891 572.222C571.542 572.222 572.881 570.857 572.881 569.172C572.881 567.488 571.542 566.122 569.891 566.122C568.239 566.122 566.9 567.488 566.9 569.172Z" fill="white"/>
<path d="M566.9 590.472C566.9 592.157 568.239 593.522 569.891 593.522C571.542 593.522 572.881 592.157 572.881 590.472C572.881 588.788 571.542 587.422 569.891 587.422C568.239 587.422 566.9 588.788 566.9 590.472Z" fill="white"/>
<path d="M661.498 172.788C661.498 174.473 662.836 175.838 664.488 175.838C666.14 175.838 667.479 174.473 667.479 172.788C667.479 171.104 666.14 169.738 664.488 169.738C662.836 169.738 661.498 171.104 661.498 172.788Z" fill="white"/>
<path d="M661.498 194.074C661.498 195.758 662.837 197.123 664.489 197.123C666.14 197.123 667.479 195.758 667.479 194.074C667.479 192.389 666.14 191.024 664.489 191.024C662.837 191.024 661.498 192.389 661.498 194.074Z" fill="white"/>
<path d="M661.498 215.378C661.498 217.062 662.837 218.428 664.489 218.428C666.14 218.428 667.479 217.062 667.479 215.378C667.479 213.693 666.14 212.328 664.489 212.328C662.837 212.328 661.498 213.693 661.498 215.378Z" fill="white"/>
<path d="M640.609 172.788C640.609 174.472 641.948 175.838 643.599 175.838C645.251 175.838 646.59 174.472 646.59 172.788C646.59 171.103 645.251 169.738 643.599 169.738C641.948 169.738 640.609 171.103 640.609 172.788Z" fill="white"/>
<path d="M640.609 194.076C640.609 195.76 641.948 197.125 643.599 197.125C645.251 197.125 646.59 195.76 646.59 194.076C646.59 192.391 645.251 191.026 643.599 191.026C641.948 191.026 640.609 192.391 640.609 194.076Z" fill="white"/>
<path d="M640.609 215.378C640.609 217.062 641.948 218.428 643.599 218.428C645.251 218.428 646.59 217.062 646.59 215.378C646.59 213.693 645.251 212.328 643.599 212.328C641.948 212.328 640.609 213.693 640.609 215.378Z" fill="white"/>
<defs>
<linearGradient id="paint0_linear_15909_1563" x1="384" y1="-20" x2="384" y2="821" gradientUnits="userSpaceOnUse">
<stop stop-color="#A62103"/>
<stop offset="1" stop-color="#9C6A42"/>
</linearGradient>
</defs>
</svg>
